<svg width="40" height="40" viewBox="0 0 40 40" fill="none" xmlns="http://www.w3.org/2000/svg">
<path d="M34.7997 5.16492C33.5775 3.9427 32.1069 3.33214 30.388 3.33325H9.57634C7.85634 3.33325 6.38579 3.94381 5.16468 5.16492C3.94245 6.38714 3.3319 7.8577 3.33301 9.57659V30.3883C3.33301 32.1083 3.94356 33.5788 5.16468 34.7999C6.3869 36.0221 7.85745 36.6327 9.57634 36.6316H14.433C14.7497 36.6316 14.988 36.6205 15.148 36.5983C15.3344 36.5614 15.5025 36.4621 15.6247 36.3166C15.7836 36.1499 15.863 35.9083 15.863 35.5916L15.8513 34.1166C15.8447 33.1766 15.8413 32.4321 15.8413 31.8832L15.3413 31.9699C15.0247 32.0277 14.6241 32.0533 14.1397 32.0466C13.6342 32.0369 13.1303 31.9862 12.633 31.8949C12.1032 31.7988 11.6045 31.5758 11.1797 31.2449C10.7338 30.9077 10.4012 30.4426 10.2263 29.9116L10.0097 29.4116C9.82636 29.0175 9.59698 28.6466 9.32634 28.3066C9.01523 27.9021 8.70079 27.6277 8.38301 27.4833L8.23301 27.3749C8.12885 27.2995 8.03377 27.2122 7.94968 27.1149C7.86935 27.0245 7.80356 26.9222 7.75468 26.8116C7.71134 26.7094 7.74745 26.626 7.86301 26.5616C7.97856 26.4949 8.18856 26.4621 8.49301 26.4633L8.92634 26.5299C9.21523 26.5866 9.57245 26.7594 9.99801 27.0483C10.4281 27.3415 10.7874 27.7269 11.0497 28.1766C11.383 28.7677 11.7841 29.2194 12.253 29.5316C12.723 29.8427 13.1963 29.9983 13.673 29.9983C14.1497 29.9983 14.5619 29.9621 14.9097 29.8899C15.2465 29.8201 15.5738 29.7105 15.8847 29.5633C16.0147 28.5955 16.3686 27.851 16.9463 27.3299C16.197 27.2559 15.4544 27.1255 14.7247 26.9399C14.0126 26.7446 13.3278 26.4607 12.6863 26.0949C12.0151 25.7295 11.4222 25.2357 10.9413 24.6416C10.4791 24.0638 10.0997 23.3055 9.80301 22.3666C9.50745 21.4266 9.35968 20.3421 9.35968 19.1133C9.35968 17.3655 9.93023 15.8766 11.0713 14.6466C10.538 13.3321 10.5886 11.8588 11.223 10.2266C11.643 10.0955 12.2647 10.1927 13.088 10.5183C13.9113 10.8438 14.5147 11.1216 14.898 11.3516C15.2813 11.5849 15.5886 11.7805 15.8197 11.9383C17.1745 11.5605 18.5748 11.3709 19.9813 11.3749C21.4125 11.3749 22.8002 11.5627 24.1447 11.9383L24.968 11.4183C25.6013 11.038 26.2693 10.7188 26.963 10.4649C27.7286 10.176 28.3141 10.0966 28.7197 10.2266C29.3697 11.8599 29.4269 13.3338 28.8913 14.6483C30.0336 15.876 30.6047 17.3649 30.6047 19.1149C30.6047 20.3438 30.4563 21.431 30.1597 22.3766C29.8641 23.3233 29.4813 24.0821 29.0113 24.6533C28.5206 25.2383 27.9256 25.7272 27.2563 26.0949C26.5563 26.4849 25.8769 26.7666 25.218 26.9399C24.4883 27.1261 23.7457 27.257 22.9963 27.3316C23.7463 27.9816 24.1219 29.0071 24.123 30.4083V35.5916C24.123 35.836 24.1591 36.0344 24.2313 36.1866C24.265 36.2597 24.3131 36.3252 24.3727 36.3793C24.4322 36.4334 24.5021 36.475 24.578 36.5016C24.7369 36.5594 24.878 36.5949 25.0013 36.6083C25.1247 36.6238 25.3013 36.631 25.5313 36.6299H30.388C32.108 36.6299 33.5786 36.0194 34.7997 34.7983C36.0208 33.5771 36.6313 32.1066 36.6313 30.3866V9.57659C36.6313 7.85659 36.0219 6.38603 34.7997 5.16492Z" fill="#343434"/>
</svg>
