<svg width="29" height="31" viewBox="0 0 29 31" fill="none" xmlns="http://www.w3.org/2000/svg">
<path d="M0.514187 22.904C1.92059 25.3389 3.93891 27.3595 6.35384 28.7502C8.76878 30.141 11.4898 30.8496 14.2265 30.8006C16.9633 30.7516 19.6131 29.9468 21.8935 28.4721C24.1738 26.9973 25.999 24.9079 27.1745 22.4267C28.35 19.9455 28.8316 17.1656 28.5679 14.3836C28.3043 11.6016 27.3053 8.92173 25.6775 6.62996C24.0496 4.33819 21.8541 2.52044 19.325 1.37063C16.796 0.220809 14.0283 -0.21795 11.3171 0.101157C9.98705 0.257442 9.55117 1.97447 10.6235 2.82973C12.459 4.29688 13.7504 6.35698 14.2731 8.65184C14.7959 10.9467 14.517 13.3312 13.4848 15.3907C12.4527 17.4502 10.7327 19.0545 8.62375 19.9247C6.51484 20.7948 4.15046 20.8758 1.94169 20.1535L1.77796 20.1099C0.531631 19.8412 -0.45711 21.1976 0.219355 22.3693L0.425944 22.7271L0.470962 22.8231L0.514187 22.904Z" fill="#F8F8F8"/>
</svg>
